# xmcd
#
# Track frame offsets: 
#        182
#        20050
#        40007
#        56762
#        73000
#        92587
#        110532
#        128242
#        146725
#        163447
#        179422
#
# Disc length: 2768 seconds
#
# Revision: 0
# Processed by: cddbd v1.5.1PL0 Copyright (c) Steve Scherf et al.
# Submitted via: ExactAudioCopy v0.95a5
#
DISCID=a30ace0b
DTITLE=Clint Bradley - This Hour
DYEAR=1997
DGENRE=Rockabilly - Country
TTITLE0=Guilty Heart
TTITLE1=Barbed Wire Round The Meadow
TTITLE2=Love Is To Blame
TTITLE3=Insane
TTITLE4=This Hour
TTITLE5=If You Feed The Devil
TTITLE6=Forever Forever
TTITLE7=Purple Land
TTITLE8=When Will I Learn
TTITLE9=Alright Mary
TTITLE10=The Years Have Not Been Kind (To The Man From The Shire)
EXTD=
EXTT0=
EXTT1=
EXTT2=
EXTT3=
EXTT4=
EXTT5=
EXTT6=
EXTT7=
EXTT8=
EXTT9=
EXTT10=
PLAYORDER=
